<mxfile host="app.diagrams.net" modified="2024-05-20T12:31:54.620Z" agent="Mozilla/5.0 (Windows NT 10.0; Win64; x64) AppleWebKit/537.36 (KHTML, like Gecko) Chrome/125.0.0.0 Safari/537.36" etag="7JgTPO3mqfS4n43YeRov" version="24.4.4" type="device">
  <diagram name="Page-1" id="vBQp2GBXKSZVnZcswByE">
    <mxGraphModel dx="1244" dy="579" grid="1" gridSize="10" guides="1" tooltips="1" connect="1" arrows="1" fold="1" page="1" pageScale="1" pageWidth="2339" pageHeight="3300" math="0" shadow="0">
      <root>
        <mxCell id="0" />
        <mxCell id="1" parent="0" />
        <mxCell id="fP4711EolyUQtDaFrVQ--1" value="customers" style="rounded=0;whiteSpace=wrap;html=1;fillColor=#FFB366;" parent="1" vertex="1">
          <mxGeometry x="616.25" y="290" width="90" height="30" as="geometry" />
        </mxCell>
        <mxCell id="fP4711EolyUQtDaFrVQ--2" value="place by" style="rhombus;whiteSpace=wrap;html=1;fillColor=#FF6666;" parent="1" vertex="1">
          <mxGeometry x="360" y="270" width="100" height="70" as="geometry" />
        </mxCell>
        <mxCell id="fP4711EolyUQtDaFrVQ--3" value="give" style="rhombus;whiteSpace=wrap;html=1;fillColor=#FF6666;" parent="1" vertex="1">
          <mxGeometry x="895" y="270" width="95" height="70" as="geometry" />
        </mxCell>
        <mxCell id="fP4711EolyUQtDaFrVQ--4" value="orders" style="rounded=0;whiteSpace=wrap;html=1;fillColor=#FFB366;" parent="1" vertex="1">
          <mxGeometry x="367.5" y="410" width="85" height="30" as="geometry" />
        </mxCell>
        <mxCell id="fP4711EolyUQtDaFrVQ--5" value="" style="endArrow=none;html=1;rounded=0;entryX=0;entryY=0.5;entryDx=0;entryDy=0;exitX=1;exitY=0.5;exitDx=0;exitDy=0;" parent="1" source="fP4711EolyUQtDaFrVQ--2" target="fP4711EolyUQtDaFrVQ--1" edge="1">
          <mxGeometry width="50" height="50" relative="1" as="geometry">
            <mxPoint x="550" y="270" as="sourcePoint" />
            <mxPoint x="600" y="220" as="targetPoint" />
          </mxGeometry>
        </mxCell>
        <mxCell id="fP4711EolyUQtDaFrVQ--39" value="m" style="edgeLabel;html=1;align=center;verticalAlign=middle;resizable=0;points=[];" parent="fP4711EolyUQtDaFrVQ--5" vertex="1" connectable="0">
          <mxGeometry x="-0.0667" y="1" relative="1" as="geometry">
            <mxPoint as="offset" />
          </mxGeometry>
        </mxCell>
        <mxCell id="fP4711EolyUQtDaFrVQ--6" value="" style="endArrow=none;html=1;rounded=0;entryX=0.5;entryY=1;entryDx=0;entryDy=0;exitX=0.5;exitY=0;exitDx=0;exitDy=0;" parent="1" source="fP4711EolyUQtDaFrVQ--4" target="fP4711EolyUQtDaFrVQ--2" edge="1">
          <mxGeometry width="50" height="50" relative="1" as="geometry">
            <mxPoint x="550" y="270" as="sourcePoint" />
            <mxPoint x="600" y="220" as="targetPoint" />
          </mxGeometry>
        </mxCell>
        <mxCell id="fP4711EolyUQtDaFrVQ--40" value="m" style="edgeLabel;html=1;align=center;verticalAlign=middle;resizable=0;points=[];" parent="fP4711EolyUQtDaFrVQ--6" vertex="1" connectable="0">
          <mxGeometry x="-0.0357" y="1" relative="1" as="geometry">
            <mxPoint as="offset" />
          </mxGeometry>
        </mxCell>
        <mxCell id="fP4711EolyUQtDaFrVQ--7" value="" style="endArrow=none;html=1;rounded=0;entryX=0;entryY=0.5;entryDx=0;entryDy=0;exitX=1;exitY=0.5;exitDx=0;exitDy=0;" parent="1" source="fP4711EolyUQtDaFrVQ--1" target="fP4711EolyUQtDaFrVQ--3" edge="1">
          <mxGeometry width="50" height="50" relative="1" as="geometry">
            <mxPoint x="550" y="270" as="sourcePoint" />
            <mxPoint x="600" y="220" as="targetPoint" />
          </mxGeometry>
        </mxCell>
        <mxCell id="fP4711EolyUQtDaFrVQ--37" value="m" style="edgeLabel;html=1;align=center;verticalAlign=middle;resizable=0;points=[];" parent="fP4711EolyUQtDaFrVQ--7" vertex="1" connectable="0">
          <mxGeometry x="-0.1667" relative="1" as="geometry">
            <mxPoint as="offset" />
          </mxGeometry>
        </mxCell>
        <mxCell id="fP4711EolyUQtDaFrVQ--10" value="payments" style="rounded=0;whiteSpace=wrap;html=1;fillColor=#FFB366;" parent="1" vertex="1">
          <mxGeometry x="897.5" y="430" width="90" height="30" as="geometry" />
        </mxCell>
        <mxCell id="fP4711EolyUQtDaFrVQ--17" value="" style="endArrow=none;html=1;rounded=0;entryX=0.5;entryY=1;entryDx=0;entryDy=0;exitX=0.5;exitY=0;exitDx=0;exitDy=0;" parent="1" source="fP4711EolyUQtDaFrVQ--10" target="fP4711EolyUQtDaFrVQ--3" edge="1">
          <mxGeometry width="50" height="50" relative="1" as="geometry">
            <mxPoint x="550" y="270" as="sourcePoint" />
            <mxPoint x="600" y="220" as="targetPoint" />
          </mxGeometry>
        </mxCell>
        <mxCell id="fP4711EolyUQtDaFrVQ--38" value="1" style="edgeLabel;html=1;align=center;verticalAlign=middle;resizable=0;points=[];" parent="fP4711EolyUQtDaFrVQ--17" vertex="1" connectable="0">
          <mxGeometry x="-0.5" relative="1" as="geometry">
            <mxPoint as="offset" />
          </mxGeometry>
        </mxCell>
        <mxCell id="fP4711EolyUQtDaFrVQ--23" value="" style="endArrow=none;html=1;rounded=0;exitX=0.5;exitY=1;exitDx=0;exitDy=0;" parent="1" source="fP4711EolyUQtDaFrVQ--4" edge="1">
          <mxGeometry width="50" height="50" relative="1" as="geometry">
            <mxPoint x="215" y="458" as="sourcePoint" />
            <mxPoint x="410" y="610" as="targetPoint" />
          </mxGeometry>
        </mxCell>
        <mxCell id="fP4711EolyUQtDaFrVQ--41" value="m" style="edgeLabel;html=1;align=center;verticalAlign=middle;resizable=0;points=[];" parent="fP4711EolyUQtDaFrVQ--23" vertex="1" connectable="0">
          <mxGeometry x="-0.2206" y="-2" relative="1" as="geometry">
            <mxPoint x="-1" as="offset" />
          </mxGeometry>
        </mxCell>
        <mxCell id="fP4711EolyUQtDaFrVQ--25" value="" style="endArrow=none;html=1;rounded=0;exitX=0;exitY=0.5;exitDx=0;exitDy=0;" parent="1" source="fP4711EolyUQtDaFrVQ--30" edge="1">
          <mxGeometry width="50" height="50" relative="1" as="geometry">
            <mxPoint x="570" y="560" as="sourcePoint" />
            <mxPoint x="410" y="610" as="targetPoint" />
          </mxGeometry>
        </mxCell>
        <mxCell id="fP4711EolyUQtDaFrVQ--26" value="" style="endArrow=none;html=1;rounded=0;exitX=0.5;exitY=1;exitDx=0;exitDy=0;" parent="1" source="fP4711EolyUQtDaFrVQ--10" edge="1">
          <mxGeometry width="50" height="50" relative="1" as="geometry">
            <mxPoint x="696" y="456" as="sourcePoint" />
            <mxPoint x="943" y="610" as="targetPoint" />
          </mxGeometry>
        </mxCell>
        <mxCell id="fP4711EolyUQtDaFrVQ--42" value="m" style="edgeLabel;html=1;align=center;verticalAlign=middle;resizable=0;points=[];" parent="fP4711EolyUQtDaFrVQ--26" vertex="1" connectable="0">
          <mxGeometry x="-0.2666" y="1" relative="1" as="geometry">
            <mxPoint as="offset" />
          </mxGeometry>
        </mxCell>
        <mxCell id="fP4711EolyUQtDaFrVQ--27" value="" style="endArrow=none;html=1;rounded=0;" parent="1" edge="1">
          <mxGeometry width="50" height="50" relative="1" as="geometry">
            <mxPoint x="673" y="610" as="sourcePoint" />
            <mxPoint x="943" y="610" as="targetPoint" />
          </mxGeometry>
        </mxCell>
        <mxCell id="fP4711EolyUQtDaFrVQ--30" value="paid for" style="rhombus;whiteSpace=wrap;html=1;fillColor=#FF6666;" parent="1" vertex="1">
          <mxGeometry x="600" y="570" width="80" height="80" as="geometry" />
        </mxCell>
        <mxCell id="fP4711EolyUQtDaFrVQ--31" value="" style="endArrow=none;html=1;rounded=0;entryX=0;entryY=0.5;entryDx=0;entryDy=0;" parent="1" target="fP4711EolyUQtDaFrVQ--4" edge="1">
          <mxGeometry width="50" height="50" relative="1" as="geometry">
            <mxPoint x="290" y="425" as="sourcePoint" />
            <mxPoint x="740" y="490" as="targetPoint" />
          </mxGeometry>
        </mxCell>
        <mxCell id="fP4711EolyUQtDaFrVQ--57" value="1" style="edgeLabel;html=1;align=center;verticalAlign=middle;resizable=0;points=[];" parent="fP4711EolyUQtDaFrVQ--31" vertex="1" connectable="0">
          <mxGeometry x="-0.2258" y="-1" relative="1" as="geometry">
            <mxPoint as="offset" />
          </mxGeometry>
        </mxCell>
        <mxCell id="fP4711EolyUQtDaFrVQ--32" value="orders" style="rhombus;whiteSpace=wrap;html=1;fillColor=#FF6666;" parent="1" vertex="1">
          <mxGeometry x="628.75" y="360" width="65" height="40" as="geometry" />
        </mxCell>
        <mxCell id="fP4711EolyUQtDaFrVQ--33" value="product" style="rounded=0;whiteSpace=wrap;html=1;fillColor=#FFB366;" parent="1" vertex="1">
          <mxGeometry x="622.5" y="450" width="77.5" height="30" as="geometry" />
        </mxCell>
        <mxCell id="fP4711EolyUQtDaFrVQ--34" style="edgeStyle=orthogonalEdgeStyle;rounded=0;orthogonalLoop=1;jettySize=auto;html=1;exitX=0.5;exitY=1;exitDx=0;exitDy=0;" parent="1" source="fP4711EolyUQtDaFrVQ--32" target="fP4711EolyUQtDaFrVQ--32" edge="1">
          <mxGeometry relative="1" as="geometry" />
        </mxCell>
        <mxCell id="fP4711EolyUQtDaFrVQ--35" value="" style="endArrow=none;html=1;rounded=0;entryX=0.5;entryY=1;entryDx=0;entryDy=0;exitX=0.5;exitY=0;exitDx=0;exitDy=0;" parent="1" source="fP4711EolyUQtDaFrVQ--32" target="fP4711EolyUQtDaFrVQ--1" edge="1">
          <mxGeometry width="50" height="50" relative="1" as="geometry">
            <mxPoint x="690" y="540" as="sourcePoint" />
            <mxPoint x="740" y="490" as="targetPoint" />
          </mxGeometry>
        </mxCell>
        <mxCell id="fP4711EolyUQtDaFrVQ--43" value="m" style="edgeLabel;html=1;align=center;verticalAlign=middle;resizable=0;points=[];" parent="fP4711EolyUQtDaFrVQ--35" vertex="1" connectable="0">
          <mxGeometry y="-5" relative="1" as="geometry">
            <mxPoint as="offset" />
          </mxGeometry>
        </mxCell>
        <mxCell id="fP4711EolyUQtDaFrVQ--36" value="" style="endArrow=none;html=1;rounded=0;entryX=0.5;entryY=0;entryDx=0;entryDy=0;exitX=0.5;exitY=1;exitDx=0;exitDy=0;" parent="1" source="fP4711EolyUQtDaFrVQ--32" target="fP4711EolyUQtDaFrVQ--33" edge="1">
          <mxGeometry width="50" height="50" relative="1" as="geometry">
            <mxPoint x="690" y="540" as="sourcePoint" />
            <mxPoint x="740" y="490" as="targetPoint" />
          </mxGeometry>
        </mxCell>
        <mxCell id="fP4711EolyUQtDaFrVQ--44" value="m" style="edgeLabel;html=1;align=center;verticalAlign=middle;resizable=0;points=[];" parent="fP4711EolyUQtDaFrVQ--36" vertex="1" connectable="0">
          <mxGeometry x="0.25" relative="1" as="geometry">
            <mxPoint as="offset" />
          </mxGeometry>
        </mxCell>
        <mxCell id="fP4711EolyUQtDaFrVQ--45" value="" style="endArrow=none;html=1;rounded=0;exitX=1;exitY=0.5;exitDx=0;exitDy=0;" parent="1" source="fP4711EolyUQtDaFrVQ--4" edge="1">
          <mxGeometry width="50" height="50" relative="1" as="geometry">
            <mxPoint x="690" y="540" as="sourcePoint" />
            <mxPoint x="530" y="425" as="targetPoint" />
          </mxGeometry>
        </mxCell>
        <mxCell id="fP4711EolyUQtDaFrVQ--48" value="1" style="edgeLabel;html=1;align=center;verticalAlign=middle;resizable=0;points=[];" parent="fP4711EolyUQtDaFrVQ--45" vertex="1" connectable="0">
          <mxGeometry y="-1" relative="1" as="geometry">
            <mxPoint as="offset" />
          </mxGeometry>
        </mxCell>
        <mxCell id="fP4711EolyUQtDaFrVQ--46" value="" style="endArrow=none;html=1;rounded=0;" parent="1" source="fP4711EolyUQtDaFrVQ--58" edge="1">
          <mxGeometry width="50" height="50" relative="1" as="geometry">
            <mxPoint x="530" y="458.5" as="sourcePoint" />
            <mxPoint x="530" y="423.5" as="targetPoint" />
            <Array as="points" />
          </mxGeometry>
        </mxCell>
        <mxCell id="fP4711EolyUQtDaFrVQ--47" value="" style="endArrow=none;html=1;rounded=0;entryX=0;entryY=0.5;entryDx=0;entryDy=0;" parent="1" target="fP4711EolyUQtDaFrVQ--33" edge="1">
          <mxGeometry width="50" height="50" relative="1" as="geometry">
            <mxPoint x="530" y="465" as="sourcePoint" />
            <mxPoint x="740" y="490" as="targetPoint" />
          </mxGeometry>
        </mxCell>
        <mxCell id="fP4711EolyUQtDaFrVQ--49" value="m" style="edgeLabel;html=1;align=center;verticalAlign=middle;resizable=0;points=[];" parent="fP4711EolyUQtDaFrVQ--47" vertex="1" connectable="0">
          <mxGeometry x="0.2973" y="-2" relative="1" as="geometry">
            <mxPoint as="offset" />
          </mxGeometry>
        </mxCell>
        <mxCell id="fP4711EolyUQtDaFrVQ--50" value="" style="endArrow=none;html=1;rounded=0;fillColor=#FF0000;" parent="1" edge="1">
          <mxGeometry width="50" height="50" relative="1" as="geometry">
            <mxPoint x="290" y="700" as="sourcePoint" />
            <mxPoint x="290" y="425" as="targetPoint" />
          </mxGeometry>
        </mxCell>
        <mxCell id="fP4711EolyUQtDaFrVQ--51" value="" style="endArrow=none;html=1;rounded=0;" parent="1" target="fP4711EolyUQtDaFrVQ--52" edge="1">
          <mxGeometry width="50" height="50" relative="1" as="geometry">
            <mxPoint x="290" y="700" as="sourcePoint" />
            <mxPoint x="740" y="700" as="targetPoint" />
          </mxGeometry>
        </mxCell>
        <mxCell id="fP4711EolyUQtDaFrVQ--56" value="m" style="edgeLabel;html=1;align=center;verticalAlign=middle;resizable=0;points=[];" parent="fP4711EolyUQtDaFrVQ--51" vertex="1" connectable="0">
          <mxGeometry x="-0.7805" relative="1" as="geometry">
            <mxPoint as="offset" />
          </mxGeometry>
        </mxCell>
        <mxCell id="fP4711EolyUQtDaFrVQ--52" value="contain" style="rhombus;whiteSpace=wrap;html=1;fillColor=#FF6666;" parent="1" vertex="1">
          <mxGeometry x="700" y="660" width="80" height="80" as="geometry" />
        </mxCell>
        <mxCell id="fP4711EolyUQtDaFrVQ--53" value="order-item" style="rounded=0;whiteSpace=wrap;html=1;fillColor=#FFB366;" parent="1" vertex="1">
          <mxGeometry x="940" y="680" width="110" height="40" as="geometry" />
        </mxCell>
        <mxCell id="fP4711EolyUQtDaFrVQ--54" value="" style="endArrow=none;html=1;rounded=0;entryX=1;entryY=0.5;entryDx=0;entryDy=0;exitX=0;exitY=0.5;exitDx=0;exitDy=0;" parent="1" source="fP4711EolyUQtDaFrVQ--53" target="fP4711EolyUQtDaFrVQ--52" edge="1">
          <mxGeometry width="50" height="50" relative="1" as="geometry">
            <mxPoint x="690" y="540" as="sourcePoint" />
            <mxPoint x="740" y="490" as="targetPoint" />
          </mxGeometry>
        </mxCell>
        <mxCell id="fP4711EolyUQtDaFrVQ--59" value="" style="endArrow=none;html=1;rounded=0;" parent="1" target="fP4711EolyUQtDaFrVQ--58" edge="1">
          <mxGeometry width="50" height="50" relative="1" as="geometry">
            <mxPoint x="530" y="458.5" as="sourcePoint" />
            <mxPoint x="530" y="423.5" as="targetPoint" />
            <Array as="points">
              <mxPoint x="530" y="466" />
            </Array>
          </mxGeometry>
        </mxCell>
        <mxCell id="fP4711EolyUQtDaFrVQ--58" value="many" style="rhombus;whiteSpace=wrap;html=1;fillColor=#FF6666;" parent="1" vertex="1">
          <mxGeometry x="500" y="400" width="60" height="50" as="geometry" />
        </mxCell>
        <mxCell id="fP4711EolyUQtDaFrVQ--60" value="" style="endArrow=none;html=1;rounded=0;exitX=1;exitY=0.5;exitDx=0;exitDy=0;" parent="1" source="fP4711EolyUQtDaFrVQ--10" target="fP4711EolyUQtDaFrVQ--61" edge="1">
          <mxGeometry width="50" height="50" relative="1" as="geometry">
            <mxPoint x="690" y="540" as="sourcePoint" />
            <mxPoint x="1030" y="430" as="targetPoint" />
          </mxGeometry>
        </mxCell>
        <mxCell id="fP4711EolyUQtDaFrVQ--61" value="&lt;font style=&quot;font-size: 11px;&quot;&gt;payment-ID&lt;/font&gt;" style="ellipse;whiteSpace=wrap;html=1;fillColor=#CC99FF;" parent="1" vertex="1">
          <mxGeometry x="1040" y="400" width="70" height="30" as="geometry" />
        </mxCell>
        <mxCell id="fP4711EolyUQtDaFrVQ--62" value="amount" style="ellipse;whiteSpace=wrap;html=1;fillColor=#CC99FF;" parent="1" vertex="1">
          <mxGeometry x="970" y="370" width="70" height="30" as="geometry" />
        </mxCell>
        <mxCell id="fP4711EolyUQtDaFrVQ--63" value="payment date" style="ellipse;whiteSpace=wrap;html=1;fillColor=#CC99FF;" parent="1" vertex="1">
          <mxGeometry x="970" y="490" width="70" height="30" as="geometry" />
        </mxCell>
        <mxCell id="fP4711EolyUQtDaFrVQ--64" value="order-ID" style="ellipse;whiteSpace=wrap;html=1;fillColor=#CC99FF;" parent="1" vertex="1">
          <mxGeometry x="1020" y="455" width="70" height="30" as="geometry" />
        </mxCell>
        <mxCell id="fP4711EolyUQtDaFrVQ--65" value="" style="endArrow=none;html=1;rounded=0;entryX=1;entryY=1;entryDx=0;entryDy=0;" parent="1" target="fP4711EolyUQtDaFrVQ--10" edge="1">
          <mxGeometry width="50" height="50" relative="1" as="geometry">
            <mxPoint x="1020" y="470" as="sourcePoint" />
            <mxPoint x="740" y="490" as="targetPoint" />
          </mxGeometry>
        </mxCell>
        <mxCell id="fP4711EolyUQtDaFrVQ--67" value="" style="endArrow=none;html=1;rounded=0;entryX=0.75;entryY=0;entryDx=0;entryDy=0;" parent="1" target="fP4711EolyUQtDaFrVQ--10" edge="1">
          <mxGeometry width="50" height="50" relative="1" as="geometry">
            <mxPoint x="1000" y="400" as="sourcePoint" />
            <mxPoint x="740" y="490" as="targetPoint" />
          </mxGeometry>
        </mxCell>
        <mxCell id="fP4711EolyUQtDaFrVQ--68" value="" style="endArrow=none;html=1;rounded=0;entryX=0.75;entryY=1;entryDx=0;entryDy=0;" parent="1" target="fP4711EolyUQtDaFrVQ--10" edge="1">
          <mxGeometry width="50" height="50" relative="1" as="geometry">
            <mxPoint x="1000" y="490" as="sourcePoint" />
            <mxPoint x="740" y="490" as="targetPoint" />
          </mxGeometry>
        </mxCell>
        <mxCell id="fP4711EolyUQtDaFrVQ--69" value="" style="endArrow=none;html=1;rounded=0;entryX=0.75;entryY=1;entryDx=0;entryDy=0;" parent="1" target="fP4711EolyUQtDaFrVQ--33" edge="1">
          <mxGeometry width="50" height="50" relative="1" as="geometry">
            <mxPoint x="710" y="510" as="sourcePoint" />
            <mxPoint x="740" y="490" as="targetPoint" />
          </mxGeometry>
        </mxCell>
        <mxCell id="fP4711EolyUQtDaFrVQ--70" value="price" style="ellipse;whiteSpace=wrap;html=1;fillColor=#CC99FF;" parent="1" vertex="1">
          <mxGeometry x="693.75" y="510" width="60" height="30" as="geometry" />
        </mxCell>
        <mxCell id="fP4711EolyUQtDaFrVQ--71" value="name" style="ellipse;whiteSpace=wrap;html=1;fillColor=#CC99FF;" parent="1" vertex="1">
          <mxGeometry x="740" y="480" width="70" height="30" as="geometry" />
        </mxCell>
        <mxCell id="fP4711EolyUQtDaFrVQ--72" value="product-ID" style="ellipse;whiteSpace=wrap;html=1;fillColor=#CC99FF;" parent="1" vertex="1">
          <mxGeometry x="730" y="435" width="70" height="25" as="geometry" />
        </mxCell>
        <mxCell id="fP4711EolyUQtDaFrVQ--73" value="category" style="ellipse;whiteSpace=wrap;html=1;fillColor=#CC99FF;" parent="1" vertex="1">
          <mxGeometry x="616.25" y="510" width="70" height="30" as="geometry" />
        </mxCell>
        <mxCell id="fP4711EolyUQtDaFrVQ--74" value="" style="endArrow=none;html=1;rounded=0;entryX=1;entryY=1;entryDx=0;entryDy=0;" parent="1" target="fP4711EolyUQtDaFrVQ--33" edge="1">
          <mxGeometry width="50" height="50" relative="1" as="geometry">
            <mxPoint x="740" y="490" as="sourcePoint" />
            <mxPoint x="740" y="490" as="targetPoint" />
          </mxGeometry>
        </mxCell>
        <mxCell id="fP4711EolyUQtDaFrVQ--75" value="" style="endArrow=none;html=1;rounded=0;entryX=0.5;entryY=1;entryDx=0;entryDy=0;" parent="1" target="fP4711EolyUQtDaFrVQ--33" edge="1">
          <mxGeometry width="50" height="50" relative="1" as="geometry">
            <mxPoint x="660" y="510" as="sourcePoint" />
            <mxPoint x="740" y="490" as="targetPoint" />
          </mxGeometry>
        </mxCell>
        <mxCell id="fP4711EolyUQtDaFrVQ--76" value="" style="endArrow=none;html=1;rounded=0;entryX=1;entryY=0.5;entryDx=0;entryDy=0;" parent="1" target="fP4711EolyUQtDaFrVQ--33" edge="1">
          <mxGeometry width="50" height="50" relative="1" as="geometry">
            <mxPoint x="730" y="450" as="sourcePoint" />
            <mxPoint x="740" y="490" as="targetPoint" />
          </mxGeometry>
        </mxCell>
        <mxCell id="fP4711EolyUQtDaFrVQ--77" value="" style="endArrow=none;html=1;rounded=0;entryX=1;entryY=0.5;entryDx=0;entryDy=0;" parent="1" target="fP4711EolyUQtDaFrVQ--53" edge="1">
          <mxGeometry width="50" height="50" relative="1" as="geometry">
            <mxPoint x="1090" y="690" as="sourcePoint" />
            <mxPoint x="740" y="490" as="targetPoint" />
          </mxGeometry>
        </mxCell>
        <mxCell id="fP4711EolyUQtDaFrVQ--78" value="" style="endArrow=none;html=1;rounded=0;entryX=0.75;entryY=0;entryDx=0;entryDy=0;exitX=0;exitY=1;exitDx=0;exitDy=0;" parent="1" source="fP4711EolyUQtDaFrVQ--84" target="fP4711EolyUQtDaFrVQ--1" edge="1">
          <mxGeometry width="50" height="50" relative="1" as="geometry">
            <mxPoint x="700" y="260" as="sourcePoint" />
            <mxPoint x="740" y="490" as="targetPoint" />
          </mxGeometry>
        </mxCell>
        <mxCell id="fP4711EolyUQtDaFrVQ--79" value="" style="endArrow=none;html=1;rounded=0;exitX=0.5;exitY=0;exitDx=0;exitDy=0;" parent="1" source="fP4711EolyUQtDaFrVQ--1" edge="1">
          <mxGeometry width="50" height="50" relative="1" as="geometry">
            <mxPoint x="690" y="540" as="sourcePoint" />
            <mxPoint x="680" y="260" as="targetPoint" />
          </mxGeometry>
        </mxCell>
        <mxCell id="fP4711EolyUQtDaFrVQ--80" value="" style="endArrow=none;html=1;rounded=0;exitX=0.25;exitY=0;exitDx=0;exitDy=0;" parent="1" source="fP4711EolyUQtDaFrVQ--1" target="fP4711EolyUQtDaFrVQ--81" edge="1">
          <mxGeometry width="50" height="50" relative="1" as="geometry">
            <mxPoint x="690" y="540" as="sourcePoint" />
            <mxPoint x="639" y="260" as="targetPoint" />
          </mxGeometry>
        </mxCell>
        <mxCell id="fP4711EolyUQtDaFrVQ--81" value="address" style="ellipse;whiteSpace=wrap;html=1;fillColor=#CC99FF;" parent="1" vertex="1">
          <mxGeometry x="560" y="240" width="71" height="30" as="geometry" />
        </mxCell>
        <mxCell id="fP4711EolyUQtDaFrVQ--82" value="e-mail" style="ellipse;whiteSpace=wrap;html=1;fillColor=#CC99FF;" parent="1" vertex="1">
          <mxGeometry x="705" y="325" width="65" height="25" as="geometry" />
        </mxCell>
        <mxCell id="fP4711EolyUQtDaFrVQ--83" value="name" style="ellipse;whiteSpace=wrap;html=1;fillColor=#CC99FF;" parent="1" vertex="1">
          <mxGeometry x="640" y="230" width="70" height="30" as="geometry" />
        </mxCell>
        <mxCell id="fP4711EolyUQtDaFrVQ--84" value="customer-ID" style="ellipse;whiteSpace=wrap;html=1;fillColor=#CC99FF;" parent="1" vertex="1">
          <mxGeometry x="720" y="250" width="80" height="30" as="geometry" />
        </mxCell>
        <mxCell id="fP4711EolyUQtDaFrVQ--85" value="phone number" style="ellipse;whiteSpace=wrap;html=1;fillColor=#CC99FF;" parent="1" vertex="1">
          <mxGeometry x="560" y="330" width="64" height="30" as="geometry" />
        </mxCell>
        <mxCell id="fP4711EolyUQtDaFrVQ--86" value="" style="endArrow=none;html=1;rounded=0;entryX=0.5;entryY=0;entryDx=0;entryDy=0;exitX=0;exitY=0.5;exitDx=0;exitDy=0;" parent="1" source="fP4711EolyUQtDaFrVQ--1" target="fP4711EolyUQtDaFrVQ--85" edge="1">
          <mxGeometry width="50" height="50" relative="1" as="geometry">
            <mxPoint x="690" y="540" as="sourcePoint" />
            <mxPoint x="740" y="490" as="targetPoint" />
          </mxGeometry>
        </mxCell>
        <mxCell id="fP4711EolyUQtDaFrVQ--87" value="" style="endArrow=none;html=1;rounded=0;exitX=0;exitY=0.5;exitDx=0;exitDy=0;entryX=0.75;entryY=1;entryDx=0;entryDy=0;" parent="1" source="fP4711EolyUQtDaFrVQ--82" target="fP4711EolyUQtDaFrVQ--1" edge="1">
          <mxGeometry width="50" height="50" relative="1" as="geometry">
            <mxPoint x="690" y="540" as="sourcePoint" />
            <mxPoint x="740" y="490" as="targetPoint" />
          </mxGeometry>
        </mxCell>
        <mxCell id="fP4711EolyUQtDaFrVQ--88" value="" style="endArrow=none;html=1;rounded=0;exitX=0.25;exitY=0;exitDx=0;exitDy=0;" parent="1" source="fP4711EolyUQtDaFrVQ--4" edge="1">
          <mxGeometry width="50" height="50" relative="1" as="geometry">
            <mxPoint x="690" y="540" as="sourcePoint" />
            <mxPoint x="350" y="380" as="targetPoint" />
          </mxGeometry>
        </mxCell>
        <mxCell id="fP4711EolyUQtDaFrVQ--89" value="" style="endArrow=none;html=1;rounded=0;exitX=0;exitY=0;exitDx=0;exitDy=0;" parent="1" source="fP4711EolyUQtDaFrVQ--4" edge="1">
          <mxGeometry width="50" height="50" relative="1" as="geometry">
            <mxPoint x="690" y="540" as="sourcePoint" />
            <mxPoint x="320" y="400" as="targetPoint" />
          </mxGeometry>
        </mxCell>
        <mxCell id="fP4711EolyUQtDaFrVQ--90" value="" style="endArrow=none;html=1;rounded=0;exitX=0.75;exitY=1;exitDx=0;exitDy=0;" parent="1" source="fP4711EolyUQtDaFrVQ--4" edge="1">
          <mxGeometry width="50" height="50" relative="1" as="geometry">
            <mxPoint x="690" y="540" as="sourcePoint" />
            <mxPoint x="450" y="460" as="targetPoint" />
          </mxGeometry>
        </mxCell>
        <mxCell id="fP4711EolyUQtDaFrVQ--91" value="" style="endArrow=none;html=1;rounded=0;exitX=0.25;exitY=1;exitDx=0;exitDy=0;" parent="1" source="fP4711EolyUQtDaFrVQ--4" edge="1">
          <mxGeometry width="50" height="50" relative="1" as="geometry">
            <mxPoint x="690" y="540" as="sourcePoint" />
            <mxPoint x="370" y="480" as="targetPoint" />
          </mxGeometry>
        </mxCell>
        <mxCell id="fP4711EolyUQtDaFrVQ--92" value="&lt;font style=&quot;font-size: 11px;&quot;&gt;total amount&lt;/font&gt;" style="ellipse;whiteSpace=wrap;html=1;fillColor=#CC99FF;" parent="1" vertex="1">
          <mxGeometry x="430" y="460" width="60" height="30" as="geometry" />
        </mxCell>
        <mxCell id="fP4711EolyUQtDaFrVQ--93" value="order date" style="ellipse;whiteSpace=wrap;html=1;fillColor=#CC99FF;" parent="1" vertex="1">
          <mxGeometry x="320" y="480" width="70" height="30" as="geometry" />
        </mxCell>
        <mxCell id="fP4711EolyUQtDaFrVQ--94" value="&lt;font style=&quot;font-size: 11px;&quot;&gt;customer-ID&lt;/font&gt;" style="ellipse;whiteSpace=wrap;html=1;fillColor=#CC99FF;" parent="1" vertex="1">
          <mxGeometry x="250" y="385" width="70" height="25" as="geometry" />
        </mxCell>
        <mxCell id="fP4711EolyUQtDaFrVQ--95" value="order-ID" style="ellipse;whiteSpace=wrap;html=1;fillColor=#CC99FF;" parent="1" vertex="1">
          <mxGeometry x="310" y="360" width="80" height="25" as="geometry" />
        </mxCell>
        <mxCell id="fP4711EolyUQtDaFrVQ--96" value="order-ID" style="ellipse;whiteSpace=wrap;html=1;fillColor=#CC99FF;" parent="1" vertex="1">
          <mxGeometry x="990" y="615" width="90" height="35" as="geometry" />
        </mxCell>
        <mxCell id="fP4711EolyUQtDaFrVQ--98" value="order-item-ID" style="ellipse;whiteSpace=wrap;html=1;fillColor=#CC99FF;" parent="1" vertex="1">
          <mxGeometry x="1100" y="610" width="90" height="30" as="geometry" />
        </mxCell>
        <mxCell id="fP4711EolyUQtDaFrVQ--99" value="product-ID" style="ellipse;whiteSpace=wrap;html=1;fillColor=#CC99FF;" parent="1" vertex="1">
          <mxGeometry x="1089" y="670" width="80" height="30" as="geometry" />
        </mxCell>
        <mxCell id="fP4711EolyUQtDaFrVQ--100" value="price" style="ellipse;whiteSpace=wrap;html=1;fillColor=#CC99FF;" parent="1" vertex="1">
          <mxGeometry x="1010" y="750" width="80" height="30" as="geometry" />
        </mxCell>
        <mxCell id="fP4711EolyUQtDaFrVQ--101" value="" style="endArrow=none;html=1;rounded=0;entryX=1;entryY=0.75;entryDx=0;entryDy=0;" parent="1" target="fP4711EolyUQtDaFrVQ--53" edge="1">
          <mxGeometry width="50" height="50" relative="1" as="geometry">
            <mxPoint x="1080" y="720" as="sourcePoint" />
            <mxPoint x="740" y="490" as="targetPoint" />
          </mxGeometry>
        </mxCell>
        <mxCell id="fP4711EolyUQtDaFrVQ--102" value="quantity" style="ellipse;whiteSpace=wrap;html=1;fillColor=#CC99FF;" parent="1" vertex="1">
          <mxGeometry x="1080" y="710" width="80" height="30" as="geometry" />
        </mxCell>
        <mxCell id="fP4711EolyUQtDaFrVQ--103" value="" style="endArrow=none;html=1;rounded=0;entryX=0.75;entryY=1;entryDx=0;entryDy=0;" parent="1" target="fP4711EolyUQtDaFrVQ--53" edge="1">
          <mxGeometry width="50" height="50" relative="1" as="geometry">
            <mxPoint x="1050" y="750" as="sourcePoint" />
            <mxPoint x="740" y="490" as="targetPoint" />
          </mxGeometry>
        </mxCell>
        <mxCell id="fP4711EolyUQtDaFrVQ--104" value="" style="endArrow=none;html=1;rounded=0;entryX=0.5;entryY=0;entryDx=0;entryDy=0;" parent="1" target="fP4711EolyUQtDaFrVQ--53" edge="1">
          <mxGeometry width="50" height="50" relative="1" as="geometry">
            <mxPoint x="1030" y="650" as="sourcePoint" />
            <mxPoint x="740" y="490" as="targetPoint" />
          </mxGeometry>
        </mxCell>
        <mxCell id="fP4711EolyUQtDaFrVQ--105" value="" style="endArrow=none;html=1;rounded=0;entryX=1;entryY=0;entryDx=0;entryDy=0;" parent="1" target="fP4711EolyUQtDaFrVQ--53" edge="1">
          <mxGeometry width="50" height="50" relative="1" as="geometry">
            <mxPoint x="1130" y="640" as="sourcePoint" />
            <mxPoint x="740" y="490" as="targetPoint" />
          </mxGeometry>
        </mxCell>
        <mxCell id="fP4711EolyUQtDaFrVQ--106" value="Text" style="text;html=1;align=center;verticalAlign=middle;resizable=0;points=[];autosize=1;strokeColor=none;fillColor=none;" parent="1" vertex="1">
          <mxGeometry x="1195" y="258" width="50" height="30" as="geometry" />
        </mxCell>
        <mxCell id="CFnwp6bdwVSeEOt0_ZWp-1" value="" style="endArrow=none;html=1;rounded=0;" edge="1" parent="1">
          <mxGeometry width="50" height="50" relative="1" as="geometry">
            <mxPoint x="745" y="455" as="sourcePoint" />
            <mxPoint x="785" y="455" as="targetPoint" />
            <Array as="points">
              <mxPoint x="765" y="455" />
            </Array>
          </mxGeometry>
        </mxCell>
        <mxCell id="CFnwp6bdwVSeEOt0_ZWp-2" value="" style="endArrow=none;html=1;rounded=0;" edge="1" parent="1">
          <mxGeometry width="50" height="50" relative="1" as="geometry">
            <mxPoint x="325" y="379.44" as="sourcePoint" />
            <mxPoint x="375" y="379.44" as="targetPoint" />
          </mxGeometry>
        </mxCell>
        <mxCell id="CFnwp6bdwVSeEOt0_ZWp-3" value="" style="endArrow=none;html=1;rounded=0;" edge="1" parent="1">
          <mxGeometry width="50" height="50" relative="1" as="geometry">
            <mxPoint x="735" y="272.44" as="sourcePoint" />
            <mxPoint x="785" y="272.44" as="targetPoint" />
          </mxGeometry>
        </mxCell>
        <mxCell id="CFnwp6bdwVSeEOt0_ZWp-4" value="" style="endArrow=none;html=1;rounded=0;" edge="1" parent="1">
          <mxGeometry width="50" height="50" relative="1" as="geometry">
            <mxPoint x="1057" y="422.44" as="sourcePoint" />
            <mxPoint x="1097" y="422.44" as="targetPoint" />
          </mxGeometry>
        </mxCell>
        <mxCell id="CFnwp6bdwVSeEOt0_ZWp-5" value="" style="endArrow=none;html=1;rounded=0;" edge="1" parent="1">
          <mxGeometry width="50" height="50" relative="1" as="geometry">
            <mxPoint x="1115" y="631.94" as="sourcePoint" />
            <mxPoint x="1175" y="631.94" as="targetPoint" />
          </mxGeometry>
        </mxCell>
      </root>
    </mxGraphModel>
  </diagram>
</mxfile>
